<?xml version="1.0" encoding="iso-8859-1"?>
<!-- Generator: Adobe Illustrator 19.0.0, SVG Export Plug-In . SVG Version: 6.00 Build 0)  -->
<svg version="1.1" id="Layer_1" xmlns="http://www.w3.org/2000/svg" xmlns:xlink="http://www.w3.org/1999/xlink" x="0px" y="0px"
	 viewBox="0 0 290.031 290.031" style="enable-background:new 0 0 290.031 290.031;" xml:space="preserve">
<g id="XMLID_340_">
	<path id="XMLID_341_" d="M45.395,271.896c11.846,11.847,28.588,18.115,48.402,18.115c39.641,0,89.543-25.276,130.232-65.964
		c29.127-29.126,50.531-62.819,60.27-94.872c10.721-35.286,6.307-65.038-12.433-83.775L230.878,4.413
		c-5.857-5.858-15.355-5.858-21.213,0l-61.366,61.363c-2.813,2.813-4.393,6.629-4.393,10.607c0,3.978,1.58,7.793,4.393,10.606
		l30.445,30.445l-61.354,61.353l-30.445-30.445c-5.858-5.857-15.355-5.857-21.213,0.001l-61.34,61.339
		c-5.857,5.858-5.857,15.355,0,21.213C4.393,230.895,44.803,271.305,45.395,271.896z"/>
</g>
<g>
</g>
<g>
</g>
<g>
</g>
<g>
</g>
<g>
</g>
<g>
</g>
<g>
</g>
<g>
</g>
<g>
</g>
<g>
</g>
<g>
</g>
<g>
</g>
<g>
</g>
<g>
</g>
<g>
</g>
</svg>
