<?xml version="1.0" encoding="iso-8859-1"?>
<!-- Generator: Adobe Illustrator 19.0.0, SVG Export Plug-In . SVG Version: 6.00 Build 0)  -->
<svg version="1.1" id="Layer_1" xmlns="http://www.w3.org/2000/svg" xmlns:xlink="http://www.w3.org/1999/xlink" x="0px" y="0px"
	 viewBox="0 0 512 512" style="enable-background:new 0 0 512 512;" xml:space="preserve">
<g>
	<g>
		<g>
			<path d="M409.6,51.2h-76.8v-8.533c0-4.71-3.823-8.533-8.533-8.533h-26.462C293.845,14.686,276.608,0,256,0
				s-37.845,14.686-41.805,34.133h-26.462c-4.71,0-8.533,3.823-8.533,8.533V51.2h-76.8c-14.114,0-25.6,11.486-25.6,25.6v409.6
				c0,14.114,11.486,25.6,25.6,25.6h307.2c14.114,0,25.6-11.486,25.6-25.6V76.8C435.2,62.686,423.714,51.2,409.6,51.2z
				 M196.267,51.2h25.6c4.71,0,8.533-3.823,8.533-8.533c0-14.114,11.486-25.6,25.6-25.6c14.114,0,25.6,11.486,25.6,25.6
				c0,4.71,3.823,8.533,8.533,8.533h25.6v51.2H196.267V51.2z M418.133,486.4c0,4.702-3.831,8.533-8.533,8.533H102.4
				c-4.702,0-8.533-3.831-8.533-8.533V76.8c0-4.702,3.831-8.533,8.533-8.533h76.8v42.667c0,4.71,3.823,8.533,8.533,8.533h136.533
				c4.71,0,8.533-3.823,8.533-8.533V68.267h76.8c4.702,0,8.533,3.831,8.533,8.533V486.4z"/>
			<path d="M256,358.4c-18.825,0-34.133,15.309-34.133,34.133s15.309,34.133,34.133,34.133s34.133-15.309,34.133-34.133
				S274.825,358.4,256,358.4z M256,409.6c-9.412,0-17.067-7.654-17.067-17.067s7.654-17.067,17.067-17.067
				c9.412,0,17.067,7.654,17.067,17.067S265.412,409.6,256,409.6z"/>
			<path d="M315.69,161.271c-0.005-0.054-0.017-0.105-0.023-0.159c-0.027-0.222-0.057-0.443-0.101-0.662
				c-0.021-0.107-0.052-0.211-0.077-0.316c-0.039-0.163-0.076-0.327-0.126-0.488c-0.037-0.121-0.083-0.238-0.125-0.357
				c-0.05-0.142-0.097-0.285-0.155-0.424c-0.052-0.125-0.113-0.246-0.171-0.368c-0.06-0.128-0.117-0.256-0.184-0.381
				c-0.073-0.136-0.155-0.266-0.235-0.397c-0.063-0.104-0.122-0.211-0.19-0.313c-0.116-0.174-0.243-0.34-0.371-0.504
				c-0.042-0.054-0.079-0.111-0.122-0.164c-0.364-0.445-0.771-0.853-1.217-1.216c-0.035-0.028-0.072-0.052-0.107-0.08
				c-0.183-0.145-0.37-0.286-0.565-0.415c-0.079-0.053-0.162-0.098-0.243-0.148c-0.155-0.096-0.31-0.193-0.472-0.279
				c-0.096-0.051-0.195-0.094-0.292-0.141c-0.153-0.074-0.304-0.15-0.462-0.215c-0.101-0.042-0.204-0.074-0.306-0.112
				c-0.159-0.059-0.317-0.119-0.48-0.168c-0.105-0.032-0.212-0.054-0.318-0.082c-0.162-0.042-0.323-0.087-0.489-0.12
				c-0.124-0.025-0.249-0.038-0.374-0.057c-0.15-0.023-0.298-0.05-0.45-0.065c-0.225-0.022-0.45-0.03-0.676-0.034
				c-0.054-0.001-0.106-0.008-0.16-0.008h-36.207c-4.71,0-8.533,3.823-8.533,8.533c0,4.719,3.823,8.533,8.533,8.533h15.61
				L249.967,207.3c-0.198,0.198-0.386,0.407-0.565,0.624c-0.089,0.108-0.166,0.221-0.249,0.332c-0.083,0.112-0.169,0.22-0.247,0.336
				c-0.092,0.138-0.173,0.28-0.257,0.422c-0.057,0.097-0.118,0.19-0.171,0.289c-0.082,0.153-0.153,0.31-0.225,0.467
				c-0.044,0.095-0.092,0.188-0.132,0.284c-0.068,0.164-0.125,0.331-0.182,0.497c-0.033,0.096-0.071,0.189-0.1,0.287
				c-0.056,0.182-0.099,0.367-0.142,0.552c-0.02,0.085-0.045,0.168-0.062,0.255c-0.048,0.239-0.083,0.481-0.11,0.723
				c-0.004,0.034-0.011,0.067-0.015,0.102c-0.031,0.302-0.045,0.605-0.044,0.909V332.8c0,4.71,3.823,8.533,8.533,8.533
				c4.71,0,8.533-3.823,8.533-8.533V216.866l34.133-34.133v15.605c0,4.71,3.823,8.533,8.533,8.533s8.533-3.823,8.533-8.533v-36.16
				C315.735,161.875,315.72,161.573,315.69,161.271z"/>
			<path d="M219.366,224.367l-11.034-11.034l11.034-11.034c3.337-3.336,3.337-8.73,0-12.066s-8.73-3.337-12.066,0l-11.034,11.034
				l-11.034-11.034c-3.336-3.337-8.73-3.337-12.066,0s-3.337,8.73,0,12.066l11.034,11.034l-11.034,11.034
				c-3.337,3.336-3.337,8.73,0,12.066c1.664,1.664,3.849,2.5,6.033,2.5c2.185,0,4.369-0.836,6.033-2.5l11.034-11.034l11.034,11.034
				c1.664,1.664,3.849,2.5,6.033,2.5c2.185,0,4.369-0.836,6.033-2.5C222.703,233.097,222.703,227.703,219.366,224.367z"/>
			<path d="M381.5,241.434c-3.337-3.337-8.73-3.337-12.066,0L358.4,252.467l-11.034-11.034c-3.337-3.337-8.73-3.337-12.066,0
				c-3.336,3.337-3.336,8.73,0,12.066l11.034,11.034L335.3,275.567c-3.336,3.337-3.336,8.73,0,12.066
				c1.664,1.664,3.849,2.5,6.033,2.5c2.185,0,4.369-0.836,6.033-2.5l11.034-11.034l11.034,11.034c1.664,1.664,3.849,2.5,6.033,2.5
				c2.185,0,4.369-0.836,6.033-2.5c3.336-3.337,3.336-8.73,0-12.066l-11.034-11.034L381.5,253.5
				C384.836,250.163,384.836,244.77,381.5,241.434z"/>
			<path d="M185.233,292.634c-3.336-3.337-8.73-3.337-12.066,0l-11.034,11.034L151.1,292.634c-3.337-3.337-8.73-3.337-12.066,0
				c-3.336,3.336-3.336,8.73,0,12.066l11.034,11.034l-11.034,11.034c-3.336,3.337-3.336,8.73,0,12.066
				c1.664,1.664,3.849,2.5,6.033,2.5s4.369-0.836,6.033-2.5l11.034-11.034l11.034,11.034c1.664,1.664,3.849,2.5,6.033,2.5
				c2.185,0,4.369-0.836,6.033-2.5c3.337-3.337,3.337-8.73,0-12.066l-11.034-11.034l11.034-11.034
				C188.57,301.363,188.57,295.97,185.233,292.634z"/>
		</g>
	</g>
</g>
<g>
</g>
<g>
</g>
<g>
</g>
<g>
</g>
<g>
</g>
<g>
</g>
<g>
</g>
<g>
</g>
<g>
</g>
<g>
</g>
<g>
</g>
<g>
</g>
<g>
</g>
<g>
</g>
<g>
</g>
</svg>
