<?xml version="1.0" encoding="utf-8"?>
<!-- Generator: Adobe Illustrator 22.1.0, SVG Export Plug-In . SVG Version: 6.00 Build 0)  -->
<svg version="1.1" id="Lag_1" xmlns="http://www.w3.org/2000/svg" xmlns:xlink="http://www.w3.org/1999/xlink" x="0px" y="0px"
	 viewBox="0 0 1600 147" style="enable-background:new 0 0 1600 147;" xml:space="preserve">
<g id="layer101">
	<path d="M1.2,147.9l-6.3-0.4V142v-5.5l3.3,0.4c12.8,1.7,63.8,3.8,81.3,3.3c23.1-0.6,30.8-1.9,41.4-7.3c13.4-6.7,22.9-20.8,29-43.2
		c9.9-36.6,12.7-43.8,20.3-52c9.6-10.5,20.4-13.6,46-13.6c32.1,0.1,55.2,5,107.9,22.9c127,43,141.1,46.8,175.4,46.8
		c31.8,0,45.7-6.8,60.5-29.8c5-7.7,18.5-34.1,22.5-44c0.7-1.6,2.8-6.9,4.7-11.7l3.5-8.6l8.1-0.3c4.5-0.2,8.2,0,8.2,0.3
		c0,1-19.2,49.9-20.1,50.9c-0.4,0.6-1.1,2.1-1.5,3.4c-1.2,4.2-11.5,21.8-17.1,29.2c-4.9,6.4-10.3,11.4-17.8,16.1
		c-5.4,3.4-20,6.9-31.4,7.5c-18,0.9-50.8-3.7-73.8-10.4c-11.3-3.3-58-18.7-107.9-35.6c-36.8-12.5-50.5-16.5-71.8-20.9
		c-12.9-2.6-47.7-4-58.7-2.2c-9,1.5-18.3,6.1-23.6,12c-6.1,6.7-10,16.3-17,41.6c-3.4,12.3-7.8,25.7-9.7,29.8
		c-4.8,10.2-13.5,19.4-22.7,24.1l-7.1,3.6l-59.8-0.2C34.3,148.3,4.6,148.1,1.2,147.9z"/>
	<path d="M174.5,147.8c0-0.4,0.6-1.6,1.4-2.7c2.9-4.3,7.9-18,12.1-33.2c10.5-37.9,20-50.1,42-53.9c8.2-1.4,40.5-0.7,51.8,1.1
		c23.2,3.8,53.4,13,137.3,41.8c54.3,18.6,84.5,25.3,115.1,25.5c28.4,0.2,44.3-6.5,55.8-23.7c11.6-17.5,19.3-35,27.5-63.5
		c1.5-5,4.9-16.2,7.7-24.6l5-15.6h6.5c5.8,0,6.4,0.2,5.8,1.8c-1.7,4-8,25.7-14.7,50.1c-8.1,30.2-10.1,36.1-18.1,51.9
		c-13.6,27.3-29.5,36.6-62.3,36.6c-11.8,0-21.3-1-41.9-4.6c-19-3.3-37.9-8.5-74.3-20.9C377.1,95.6,334.7,81.6,323,78.6
		c-39.8-10.8-75.3-12.4-92-4.2c-13.7,6.7-21.2,19.6-30.4,52.8c-1.2,4.2-3.3,10.7-4.7,14.5l-2.5,6.8h-9.4
		C178.7,148.6,174.5,148.3,174.5,147.8z"/>
	<path d="M234.4,138.7c4.8-13.7,8.8-21.1,15.8-28.5C261,98.3,271.3,95.1,294.9,96c31.3,1.2,52.5,6.8,142.5,37.2l44.7,15.2l-13,0.1
		l-13,0.1l-20.6-7c-61.9-21-90.7-29-113.8-31.7c-12.6-1.5-33.4-0.7-40.7,1.6c-11.8,3.8-21.2,12.8-28.6,27.8c-1.9,4-3.5,7.6-3.5,8.2
		c0,0.7-3.2,1.1-8.9,1.1h-8.9L234.4,138.7z"/>
	<path d="M296.9,146.4c3.6-3.2,10.7-6.6,17.6-8.6c14.8-4.4,53.1,0.1,83.3,9.7c1.9,0.6-15.7,0.9-50.2,1h-53.2L296.9,146.4z"/>
	<path d="M629.5,145.2c7.1-9.5,12.6-27.1,17.1-54.1c1.4-8.3,3.7-22.8,5.2-32c3.1-19.3,7.1-37.1,11.5-50.6l3.1-9.5h5.4
		c3,0,5.4,0.3,5.4,0.6s-1.8,5.9-3.9,12.4c-7,21-10.6,41.4-15.2,84.1c-2.6,24.3-4.2,34.4-7.3,44.4l-2.3,7.5l-10.8,0.3l-10.8,0.3
		L629.5,145.2z"/>
	<path d="M682.3,110.2c0.1-36.7,0.8-53.3,2.9-63.4c5.2-24.6,8.7-33.7,16.6-42.4l4.8-5.4h29.9h29.9L777,3.6
		c26.1,11,64.4,32.4,126.9,70.4c35.7,21.8,65.2,37.2,84,43.7c10.3,3.6,11.8,3.8,23.1,3.9c10.9,0,12.5-0.2,17.6-2.6
		c7.2-3.5,13.7-9.1,20.6-17.7c12.7-16,17.8-30.4,23-66.1c1.4-9.5,3.3-21.2,4.1-25.9s1.5-9,1.5-9.4c0-0.5,3.4-0.8,7.5-0.8
		c4.1,0,7.5,0.4,7.5,0.9s-1.1,5.2-2.5,10.5c-1.3,5.2-3.8,17.7-5.5,27.8c-3.4,20.3-7.9,43.2-8.8,44.8c-0.4,0.6-0.8,1.8-0.9,2.8
		c-0.5,3.1-7.1,15.8-12.1,23.5c-6.4,9.6-14.8,17.8-21.9,21.5c-5.5,2.8-6.8,3.1-18.7,3.4c-10.6,0.3-13.9,0-20.5-1.8
		c-19.2-5.5-49.8-21.2-90.6-46.6c-51.5-32-75.9-46.2-102-59.5c-28.9-14.8-44.7-21-58.4-23c-13.9-2.1-26.7-0.8-33.5,3.6
		c-9.3,5.9-18.9,22.4-21.4,37c-2.9,16.4-3.9,54.4-2.3,87.8l0.8,17h-6.1h-6V110.2z"/>
	<path d="M-5.1,111.6v-5.5l21.9-0.6c38.8-1.1,57.7-5.9,70.7-17.9c8.7-8,14.8-21.6,21.9-48.4c4.1-15.8,8.1-26.2,13-34l4-6.2h15.1
		c8.2,0,15.1,0.3,15.1,0.8c0,0.4-2.1,1.6-4.7,2.7c-6.8,3-15.3,11.9-19.2,20.2c-1.8,3.8-4.8,12.7-6.7,19.8
		c-7.2,26.8-8.7,31.4-13.2,40.7C99.9,110,80.5,117,19.8,117H-5.1V111.6z"/>
	<path d="M979.2,93.6c-17-2.7-54.8-20.2-97.1-45.1c-37-21.7-64.3-36.9-76-42.6c-6.2-3-11.2-5.7-11.2-6.1c-0.1-0.5,2.6-0.8,5.9-0.8
		c5.1,0,7.2,0.6,12.8,3.7c11.5,6.4,45.8,25.5,71.3,39.9c53.9,30.3,80.8,40.2,100.7,37.1c21-3.4,39.9-22.8,45.9-47.1
		c1.8-7.6,4.2-20.7,4.8-27.3l0.7-6.3h6.4h6.5l-0.7,6.9c-1.2,11.7-5.5,35.9-7.2,39.9c-0.3,0.8-0.8,2.4-0.9,3.6
		c-0.8,4.4-8,17.2-13.3,23.6c-6.5,7.9-18.8,16.8-26.2,19C994.5,94,986.1,94.7,979.2,93.6z"/>
	<path d="M-5.1,77.1v-6.5l8.6-2.2c17.9-4.6,31.2-11.9,40.4-22.1c6.3-7,12.9-20.3,17.7-35.5L65.2-1h9c8.3,0,9.1,0.2,8.4,1.7
		c-0.4,1-3.5,10.6-7,21.2c-6.9,21.4-11,29.5-19.4,38.4C47,70.2,29.4,78,7.2,81.9C-5.9,84.2-5.1,84.5-5.1,77.1z"/>
	<path d="M464,67.6c-1.6-0.2-7-0.9-12-1.5c-27.5-3.4-60.9-13.2-149-44C273.3,11.7,251.9,5.3,237,2.5c-5.1-1-9.3-2.2-9.3-2.6
		S235.5-1,245.1-1c19.9,0,17.2-0.6,60.4,14.8c36.3,12.9,78,26.5,95.3,31c60.8,16,93,12.8,112.4-10.9c2.8-3.6,8.7-12.8,13.1-20.7
		l7.9-14.1l9.3-0.1c5,0,9.2,0.3,9.2,0.6s-3.4,7.1-7.7,15c-18.1,33.9-28.6,45-48.4,50.5C489.6,67.1,470.8,68.5,464,67.6z"/>
	<path d="M933.7,47.9c-15.7-4.2-32.2-11.3-62.2-26.8c-14.4-7.3-29.4-15-33.3-17c-4-1.9-7.3-3.9-7.3-4.3c0-0.5,2.7-0.8,6.1-0.8
		c5.7,0,7.4,0.7,27.8,10.8c38.8,19.3,57,25.6,76.5,26.6c8.8,0.4,13,0.2,18.1-1.1c17-4.4,28.5-14.9,34.6-31.3l1.8-4.9h6.9h7l-0.7,3.4
		c-1.3,6.1-4.2,14.4-7.1,20c-3.8,7.3-15.6,19.3-22.2,22.8C966.7,51.8,951.7,52.7,933.7,47.9z"/>
	<path d="M-5.1,21.9V10.2l4.3-5.6L3.4-1h10.3C21.8-1,24-0.7,24,0.4C24,4.7-0.4,33.6-3.9,33.6C-4.8,33.6-5.1,30.2-5.1,21.9z"/>
	<path d="M418.9,27.5c-11.7-1.2-36.2-6.5-51.2-11C338.3,7.7,316,0.5,316-0.2c0-0.5,5.6-0.8,12.4-0.8c11.3,0,13.7,0.3,24.9,3.6
		c17.9,5.2,44.6,10.5,58.7,11.6c24.7,2,41.6-1.8,54.5-12.3c3.3-2.7,3.9-2.8,14.3-2.8c6,0,10.8,0.4,10.8,0.9
		c0,2.5-15.1,16.2-21.8,19.7C456.7,26.7,437.9,29.5,418.9,27.5z"/>
	<path d="M905.6,12.8c-9.5-2.2-14.7-4-26.1-8.4c-12.2-4.9-12.3-4.8,2-5.1c8.4-0.2,16.3,0.3,22,1.3c11.2,1.9,20.4,1.9,28.2,0
		c6.3-1.5,34.6-2.1,34.6-0.7C966.2,1.1,954.9,9,950.2,11C938.7,16,922,16.6,905.6,12.8z"/>
</g>
</svg>
